<svg xmlns="http://www.w3.org/2000/svg" xmlns:xlink="http://www.w3.org/1999/xlink" width="500" zoomAndPan="magnify" viewBox="0 0 375 374.999991" height="500" preserveAspectRatio="xMidYMid meet" version="1.2"><defs><clipPath id="f9f4e48839"><path d="M 94 84.773438 L 281.25 84.773438 L 281.25 210 L 94 210 Z M 94 84.773438 "/></clipPath></defs><g id="76d68b420e"><g clip-rule="nonzero" clip-path="url(#f9f4e48839)"><path style=" stroke:none;fill-rule:nonzero;fill:#ffffff;fill-opacity:1;" d="M 137.210938 120.710938 L 114.722656 120.710938 L 144.824219 172.839844 L 156.070312 153.351562 Z M 260.5625 120.710938 L 209.0625 209.882812 L 197.820312 190.417969 L 238.074219 120.710938 Z M 159.367188 84.882812 L 187.640625 133.855469 L 215.917969 84.882812 L 281.25 84.882812 L 270.003906 104.371094 L 227.160156 104.371094 L 166.214844 209.890625 L 155 190.449219 L 176.160156 153.789062 L 176.113281 153.78125 L 176.394531 153.316406 L 148.121094 104.375 L 105.273438 104.375 L 94.03125 84.882812 Z M 159.367188 84.882812 "/></g><g style="fill:#ffffff;fill-opacity:1;"><g transform="translate(74.443359, 260.571854)"><path style="stroke:none" d="M 13.921875 0.46875 C 11.503906 0.46875 9.351562 -0.0546875 7.46875 -1.109375 C 5.59375 -2.160156 4.117188 -3.613281 3.046875 -5.46875 C 1.984375 -7.320312 1.453125 -9.460938 1.453125 -11.890625 C 1.453125 -14.316406 1.976562 -16.457031 3.03125 -18.3125 C 4.09375 -20.164062 5.554688 -21.617188 7.421875 -22.671875 C 9.285156 -23.722656 11.421875 -24.25 13.828125 -24.25 C 15.753906 -24.25 17.53125 -23.910156 19.15625 -23.234375 C 20.789062 -22.554688 22.175781 -21.597656 23.3125 -20.359375 C 24.457031 -19.128906 25.269531 -17.675781 25.75 -16 L 19.9375 -16 C 19.375 -17.039062 18.566406 -17.847656 17.515625 -18.421875 C 16.460938 -19.003906 15.265625 -19.296875 13.921875 -19.296875 C 12.546875 -19.296875 11.320312 -18.976562 10.25 -18.34375 C 9.1875 -17.707031 8.351562 -16.832031 7.75 -15.71875 C 7.15625 -14.613281 6.859375 -13.335938 6.859375 -11.890625 C 6.859375 -10.460938 7.148438 -9.191406 7.734375 -8.078125 C 8.328125 -6.972656 9.15625 -6.097656 10.21875 -5.453125 C 11.289062 -4.804688 12.550781 -4.484375 14 -4.484375 C 15.738281 -4.484375 17.1875 -4.925781 18.34375 -5.8125 C 19.5 -6.695312 20.242188 -7.863281 20.578125 -9.3125 L 12.875 -9.3125 L 12.875 -13.484375 L 26.296875 -13.484375 C 26.429688 -11.441406 26.234375 -9.570312 25.703125 -7.875 C 25.171875 -6.175781 24.351562 -4.695312 23.25 -3.4375 C 22.15625 -2.1875 20.816406 -1.222656 19.234375 -0.546875 C 17.660156 0.128906 15.890625 0.46875 13.921875 0.46875 Z M 13.921875 0.46875 "/></g></g><g style="fill:#ffffff;fill-opacity:1;"><g transform="translate(102.162664, 260.571854)"><path style="stroke:none" d="M 2.578125 0 L 2.578125 -17.828125 L 6.421875 -17.828125 L 7.09375 -15.453125 C 7.6875 -16.296875 8.410156 -16.898438 9.265625 -17.265625 C 10.128906 -17.640625 11.21875 -17.828125 12.53125 -17.828125 L 14.46875 -17.828125 L 14.46875 -13.140625 L 12.5 -13.140625 C 11.03125 -13.140625 9.867188 -12.742188 9.015625 -11.953125 C 8.171875 -11.160156 7.75 -9.800781 7.75 -7.875 L 7.75 0 Z M 2.578125 0 "/></g></g><g style="fill:#ffffff;fill-opacity:1;"><g transform="translate(117.788741, 260.571854)"><path style="stroke:none" d="M 11.34375 0.46875 C 9.375 0.46875 7.632812 0.0703125 6.125 -0.71875 C 4.625 -1.507812 3.445312 -2.609375 2.59375 -4.015625 C 1.75 -5.429688 1.328125 -7.070312 1.328125 -8.9375 C 1.328125 -10.789062 1.75 -12.421875 2.59375 -13.828125 C 3.445312 -15.234375 4.625 -16.332031 6.125 -17.125 C 7.632812 -17.914062 9.375 -18.3125 11.34375 -18.3125 C 13.3125 -18.3125 15.046875 -17.914062 16.546875 -17.125 C 18.054688 -16.332031 19.226562 -15.234375 20.0625 -13.828125 C 20.90625 -12.421875 21.328125 -10.789062 21.328125 -8.9375 C 21.328125 -7.070312 20.90625 -5.429688 20.0625 -4.015625 C 19.226562 -2.609375 18.054688 -1.507812 16.546875 -0.71875 C 15.046875 0.0703125 13.3125 0.46875 11.34375 0.46875 Z M 6.421875 -8.9375 C 6.421875 -7.488281 6.878906 -6.296875 7.796875 -5.359375 C 8.710938 -4.429688 9.894531 -3.96875 11.34375 -3.96875 C 12.789062 -3.96875 13.96875 -4.429688 14.875 -5.359375 C 15.78125 -6.296875 16.234375 -7.488281 16.234375 -8.9375 C 16.234375 -10.40625 15.78125 -11.597656 14.875 -12.515625 C 13.96875 -13.429688 12.789062 -13.890625 11.34375 -13.890625 C 9.894531 -13.890625 8.710938 -13.429688 7.796875 -12.515625 C 6.878906 -11.597656 6.421875 -10.40625 6.421875 -8.9375 Z M 6.421875 -8.9375 "/></g></g><g style="fill:#ffffff;fill-opacity:1;"><g transform="translate(140.446554, 260.571854)"><path style="stroke:none" d="M 9.6875 0.46875 C 7.375 0.46875 5.550781 -0.257812 4.21875 -1.71875 C 2.894531 -3.175781 2.234375 -5.140625 2.234375 -7.609375 L 2.234375 -17.828125 L 7.40625 -17.828125 L 7.40625 -8.125 C 7.40625 -6.800781 7.71875 -5.773438 8.34375 -5.046875 C 8.96875 -4.328125 9.820312 -3.96875 10.90625 -3.96875 C 12.082031 -3.96875 13.019531 -4.375 13.71875 -5.1875 C 14.425781 -6.007812 14.78125 -7.125 14.78125 -8.53125 L 14.78125 -17.828125 L 19.9375 -17.828125 L 19.9375 0 L 16.09375 0 L 15.5625 -2 C 14.851562 -1.164062 13.988281 -0.546875 12.96875 -0.140625 C 11.957031 0.265625 10.863281 0.46875 9.6875 0.46875 Z M 9.6875 0.46875 "/></g></g><g style="fill:#ffffff;fill-opacity:1;"><g transform="translate(162.968482, 260.571854)"><path style="stroke:none" d="M 2.578125 0 L 2.578125 -17.828125 L 6.421875 -17.828125 L 6.96875 -15.828125 C 7.6875 -16.671875 8.5625 -17.296875 9.59375 -17.703125 C 10.625 -18.109375 11.726562 -18.3125 12.90625 -18.3125 C 15.238281 -18.3125 17.066406 -17.585938 18.390625 -16.140625 C 19.710938 -14.691406 20.375 -12.734375 20.375 -10.265625 L 20.375 0 L 15.21875 0 L 15.21875 -9.71875 C 15.21875 -11.03125 14.90625 -12.050781 14.28125 -12.78125 C 13.65625 -13.519531 12.789062 -13.890625 11.6875 -13.890625 C 10.507812 -13.890625 9.554688 -13.484375 8.828125 -12.671875 C 8.109375 -11.859375 7.75 -10.75 7.75 -9.34375 L 7.75 0 Z M 2.578125 0 "/></g></g><g style="fill:#ffffff;fill-opacity:1;"><g transform="translate(185.59232, 260.571854)"><path style="stroke:none" d="M 10.390625 0.46875 C 8.628906 0.46875 7.066406 0.0664062 5.703125 -0.734375 C 4.347656 -1.535156 3.28125 -2.644531 2.5 -4.0625 C 1.71875 -5.476562 1.328125 -7.101562 1.328125 -8.9375 C 1.328125 -10.769531 1.71875 -12.382812 2.5 -13.78125 C 3.28125 -15.1875 4.347656 -16.289062 5.703125 -17.09375 C 7.066406 -17.90625 8.628906 -18.3125 10.390625 -18.3125 C 11.503906 -18.3125 12.535156 -18.144531 13.484375 -17.8125 C 14.429688 -17.488281 15.289062 -17.03125 16.0625 -16.4375 L 16.0625 -25.140625 L 21.234375 -25.140625 L 21.234375 0 L 17.390625 0 L 16.78125 -2.03125 C 15.988281 -1.238281 15.046875 -0.625 13.953125 -0.1875 C 12.867188 0.25 11.679688 0.46875 10.390625 0.46875 Z M 6.421875 -8.9375 C 6.421875 -7.488281 6.878906 -6.296875 7.796875 -5.359375 C 8.710938 -4.429688 9.894531 -3.96875 11.34375 -3.96875 C 12.789062 -3.96875 13.96875 -4.429688 14.875 -5.359375 C 15.78125 -6.296875 16.234375 -7.488281 16.234375 -8.9375 C 16.234375 -10.382812 15.78125 -11.570312 14.875 -12.5 C 13.96875 -13.425781 12.789062 -13.890625 11.34375 -13.890625 C 9.894531 -13.890625 8.710938 -13.425781 7.796875 -12.5 C 6.878906 -11.570312 6.421875 -10.382812 6.421875 -8.9375 Z M 6.421875 -8.9375 "/></g></g><g style="fill:#ffffff;fill-opacity:1;"><g transform="translate(209.405098, 260.571854)"><path style="stroke:none" d="M 6.890625 0 L 0.3125 -17.828125 L 5.78125 -17.828125 L 7.84375 -11.921875 L 9.609375 -6.921875 L 11.453125 -11.921875 L 13.65625 -17.828125 L 17.828125 -17.828125 L 20.046875 -11.921875 L 21.875 -6.890625 L 23.640625 -11.921875 L 25.75 -17.828125 L 31.1875 -17.828125 L 24.59375 0 L 19.796875 0 L 15.765625 -10.875 L 11.6875 0 Z M 6.890625 0 "/></g></g><g style="fill:#ffffff;fill-opacity:1;"><g transform="translate(240.895031, 260.571854)"><path style="stroke:none" d="M 11.34375 0.46875 C 9.375 0.46875 7.632812 0.0703125 6.125 -0.71875 C 4.625 -1.507812 3.445312 -2.609375 2.59375 -4.015625 C 1.75 -5.429688 1.328125 -7.070312 1.328125 -8.9375 C 1.328125 -10.789062 1.75 -12.421875 2.59375 -13.828125 C 3.445312 -15.234375 4.625 -16.332031 6.125 -17.125 C 7.632812 -17.914062 9.375 -18.3125 11.34375 -18.3125 C 13.3125 -18.3125 15.046875 -17.914062 16.546875 -17.125 C 18.054688 -16.332031 19.226562 -15.234375 20.0625 -13.828125 C 20.90625 -12.421875 21.328125 -10.789062 21.328125 -8.9375 C 21.328125 -7.070312 20.90625 -5.429688 20.0625 -4.015625 C 19.226562 -2.609375 18.054688 -1.507812 16.546875 -0.71875 C 15.046875 0.0703125 13.3125 0.46875 11.34375 0.46875 Z M 6.421875 -8.9375 C 6.421875 -7.488281 6.878906 -6.296875 7.796875 -5.359375 C 8.710938 -4.429688 9.894531 -3.96875 11.34375 -3.96875 C 12.789062 -3.96875 13.96875 -4.429688 14.875 -5.359375 C 15.78125 -6.296875 16.234375 -7.488281 16.234375 -8.9375 C 16.234375 -10.40625 15.78125 -11.597656 14.875 -12.515625 C 13.96875 -13.429688 12.789062 -13.890625 11.34375 -13.890625 C 9.894531 -13.890625 8.710938 -13.429688 7.796875 -12.515625 C 6.878906 -11.597656 6.421875 -10.40625 6.421875 -8.9375 Z M 6.421875 -8.9375 "/></g></g><g style="fill:#ffffff;fill-opacity:1;"><g transform="translate(263.552844, 260.571854)"><path style="stroke:none" d="M 2.578125 0 L 2.578125 -17.828125 L 6.421875 -17.828125 L 7.09375 -15.453125 C 7.6875 -16.296875 8.410156 -16.898438 9.265625 -17.265625 C 10.128906 -17.640625 11.21875 -17.828125 12.53125 -17.828125 L 14.46875 -17.828125 L 14.46875 -13.140625 L 12.5 -13.140625 C 11.03125 -13.140625 9.867188 -12.742188 9.015625 -11.953125 C 8.171875 -11.160156 7.75 -9.800781 7.75 -7.875 L 7.75 0 Z M 2.578125 0 "/></g></g><g style="fill:#ffffff;fill-opacity:1;"><g transform="translate(279.178921, 260.571854)"><path style="stroke:none" d="M 2.578125 0 L 2.578125 -25.140625 L 7.75 -25.140625 L 7.75 -11.40625 L 9.0625 -11.40625 C 10.15625 -11.40625 10.976562 -11.582031 11.53125 -11.9375 C 12.082031 -12.289062 12.53125 -12.96875 12.875 -13.96875 L 14.125 -17.828125 L 19.703125 -17.828125 L 17.625 -12.15625 C 17.0625 -10.570312 16.304688 -9.363281 15.359375 -8.53125 L 20.484375 0 L 14.46875 0 L 10.53125 -6.796875 L 7.75 -6.796875 L 7.75 0 Z M 2.578125 0 "/></g></g><g style="fill:#ffffff;fill-opacity:1;"><g transform="translate(104.000982, 284.486055)"><path style="stroke:none" d="M 5.859375 0.234375 C 4.878906 0.234375 4.03125 0.0664062 3.3125 -0.265625 C 2.59375 -0.597656 2.035156 -1.066406 1.640625 -1.671875 C 1.253906 -2.273438 1.054688 -2.972656 1.046875 -3.765625 L 2.59375 -3.765625 C 2.613281 -2.984375 2.921875 -2.367188 3.515625 -1.921875 C 4.117188 -1.472656 4.898438 -1.25 5.859375 -1.25 C 6.722656 -1.25 7.410156 -1.414062 7.921875 -1.75 C 8.429688 -2.082031 8.6875 -2.554688 8.6875 -3.171875 C 8.6875 -3.742188 8.4375 -4.203125 7.9375 -4.546875 C 7.445312 -4.890625 6.648438 -5.1875 5.546875 -5.4375 C 4.046875 -5.800781 2.941406 -6.265625 2.234375 -6.828125 C 1.535156 -7.398438 1.1875 -8.15625 1.1875 -9.09375 C 1.1875 -10.132812 1.578125 -10.957031 2.359375 -11.5625 C 3.148438 -12.175781 4.21875 -12.484375 5.5625 -12.484375 C 6.9375 -12.484375 8.023438 -12.132812 8.828125 -11.4375 C 9.628906 -10.75 10.035156 -9.8125 10.046875 -8.625 L 8.515625 -8.625 C 8.503906 -9.363281 8.234375 -9.941406 7.703125 -10.359375 C 7.171875 -10.785156 6.457031 -11 5.5625 -11 C 4.6875 -11 4 -10.828125 3.5 -10.484375 C 3.007812 -10.140625 2.765625 -9.675781 2.765625 -9.09375 C 2.765625 -8.59375 2.992188 -8.171875 3.453125 -7.828125 C 3.910156 -7.484375 4.738281 -7.164062 5.9375 -6.875 C 7.5 -6.488281 8.609375 -6.003906 9.265625 -5.421875 C 9.929688 -4.847656 10.265625 -4.113281 10.265625 -3.21875 C 10.265625 -2.15625 9.863281 -1.3125 9.0625 -0.6875 C 8.269531 -0.0703125 7.203125 0.234375 5.859375 0.234375 Z M 5.859375 0.234375 "/></g></g><g style="fill:#ffffff;fill-opacity:1;"><g transform="translate(123.192179, 284.486055)"><path style="stroke:none" d="M 7.34375 0.234375 C 6.113281 0.234375 5.019531 -0.0351562 4.0625 -0.578125 C 3.101562 -1.128906 2.351562 -1.878906 1.8125 -2.828125 C 1.28125 -3.785156 1.015625 -4.882812 1.015625 -6.125 C 1.015625 -7.375 1.28125 -8.472656 1.8125 -9.421875 C 2.351562 -10.367188 3.101562 -11.113281 4.0625 -11.65625 C 5.019531 -12.207031 6.113281 -12.484375 7.34375 -12.484375 C 8.59375 -12.484375 9.691406 -12.207031 10.640625 -11.65625 C 11.597656 -11.113281 12.347656 -10.367188 12.890625 -9.421875 C 13.429688 -8.472656 13.703125 -7.375 13.703125 -6.125 C 13.703125 -4.882812 13.429688 -3.785156 12.890625 -2.828125 C 12.347656 -1.878906 11.597656 -1.128906 10.640625 -0.578125 C 9.691406 -0.0351562 8.59375 0.234375 7.34375 0.234375 Z M 2.59375 -6.125 C 2.59375 -5.175781 2.789062 -4.335938 3.1875 -3.609375 C 3.59375 -2.890625 4.15625 -2.328125 4.875 -1.921875 C 5.59375 -1.515625 6.414062 -1.3125 7.34375 -1.3125 C 8.289062 -1.3125 9.117188 -1.515625 9.828125 -1.921875 C 10.546875 -2.328125 11.101562 -2.890625 11.5 -3.609375 C 11.90625 -4.335938 12.109375 -5.175781 12.109375 -6.125 C 12.109375 -7.082031 11.90625 -7.921875 11.5 -8.640625 C 11.101562 -9.359375 10.546875 -9.921875 9.828125 -10.328125 C 9.117188 -10.734375 8.289062 -10.9375 7.34375 -10.9375 C 6.414062 -10.9375 5.59375 -10.734375 4.875 -10.328125 C 4.15625 -9.921875 3.59375 -9.359375 3.1875 -8.640625 C 2.789062 -7.921875 2.59375 -7.082031 2.59375 -6.125 Z M 2.59375 -6.125 "/></g></g><g style="fill:#ffffff;fill-opacity:1;"><g transform="translate(145.758983, 284.486055)"><path style="stroke:none" d="M 1.78125 0 L 1.78125 -12.25 L 3.328125 -12.25 L 3.328125 -1.46875 L 9.28125 -1.46875 L 9.28125 0 Z M 1.78125 0 "/></g></g><g style="fill:#ffffff;fill-opacity:1;"><g transform="translate(163.446011, 284.486055)"><path style="stroke:none" d="M 6.375 0.203125 C 4.882812 0.203125 3.722656 -0.253906 2.890625 -1.171875 C 2.054688 -2.097656 1.640625 -3.367188 1.640625 -4.984375 L 1.640625 -12.25 L 3.171875 -12.25 L 3.171875 -5.09375 C 3.171875 -3.84375 3.441406 -2.894531 3.984375 -2.25 C 4.535156 -1.613281 5.332031 -1.296875 6.375 -1.296875 C 8.507812 -1.296875 9.578125 -2.5625 9.578125 -5.09375 L 9.578125 -12.25 L 11.109375 -12.25 L 11.109375 -4.984375 C 11.109375 -3.367188 10.6875 -2.097656 9.84375 -1.171875 C 9.007812 -0.253906 7.851562 0.203125 6.375 0.203125 Z M 6.375 0.203125 "/></g></g><g style="fill:#ffffff;fill-opacity:1;"><g transform="translate(184.071396, 284.486055)"><path style="stroke:none" d="M 4.75 0 L 4.75 -10.78125 L 0.59375 -10.78125 L 0.59375 -12.25 L 10.40625 -12.25 L 10.40625 -10.78125 L 6.28125 -10.78125 L 6.28125 0 Z M 4.75 0 "/></g></g><g style="fill:#ffffff;fill-opacity:1;"><g transform="translate(202.965247, 284.486055)"><path style="stroke:none" d="M 1.78125 0 L 1.78125 -12.25 L 3.328125 -12.25 L 3.328125 0 Z M 1.78125 0 "/></g></g><g style="fill:#ffffff;fill-opacity:1;"><g transform="translate(215.94741, 284.486055)"><path style="stroke:none" d="M 7.34375 0.234375 C 6.113281 0.234375 5.019531 -0.0351562 4.0625 -0.578125 C 3.101562 -1.128906 2.351562 -1.878906 1.8125 -2.828125 C 1.28125 -3.785156 1.015625 -4.882812 1.015625 -6.125 C 1.015625 -7.375 1.28125 -8.472656 1.8125 -9.421875 C 2.351562 -10.367188 3.101562 -11.113281 4.0625 -11.65625 C 5.019531 -12.207031 6.113281 -12.484375 7.34375 -12.484375 C 8.59375 -12.484375 9.691406 -12.207031 10.640625 -11.65625 C 11.597656 -11.113281 12.347656 -10.367188 12.890625 -9.421875 C 13.429688 -8.472656 13.703125 -7.375 13.703125 -6.125 C 13.703125 -4.882812 13.429688 -3.785156 12.890625 -2.828125 C 12.347656 -1.878906 11.597656 -1.128906 10.640625 -0.578125 C 9.691406 -0.0351562 8.59375 0.234375 7.34375 0.234375 Z M 2.59375 -6.125 C 2.59375 -5.175781 2.789062 -4.335938 3.1875 -3.609375 C 3.59375 -2.890625 4.15625 -2.328125 4.875 -1.921875 C 5.59375 -1.515625 6.414062 -1.3125 7.34375 -1.3125 C 8.289062 -1.3125 9.117188 -1.515625 9.828125 -1.921875 C 10.546875 -2.328125 11.101562 -2.890625 11.5 -3.609375 C 11.90625 -4.335938 12.109375 -5.175781 12.109375 -6.125 C 12.109375 -7.082031 11.90625 -7.921875 11.5 -8.640625 C 11.101562 -9.359375 10.546875 -9.921875 9.828125 -10.328125 C 9.117188 -10.734375 8.289062 -10.9375 7.34375 -10.9375 C 6.414062 -10.9375 5.59375 -10.734375 4.875 -10.328125 C 4.15625 -9.921875 3.59375 -9.359375 3.1875 -8.640625 C 2.789062 -7.921875 2.59375 -7.082031 2.59375 -6.125 Z M 2.59375 -6.125 "/></g></g><g style="fill:#ffffff;fill-opacity:1;"><g transform="translate(238.514213, 284.486055)"><path style="stroke:none" d="M 1.78125 0 L 1.78125 -12.25 L 3.234375 -12.25 L 10.015625 -2.65625 L 10.015625 -12.25 L 11.515625 -12.25 L 11.515625 0 L 10.078125 0 L 3.3125 -9.59375 L 3.3125 0 Z M 1.78125 0 "/></g></g><g style="fill:#ffffff;fill-opacity:1;"><g transform="translate(259.681805, 284.486055)"><path style="stroke:none" d="M 5.859375 0.234375 C 4.878906 0.234375 4.03125 0.0664062 3.3125 -0.265625 C 2.59375 -0.597656 2.035156 -1.066406 1.640625 -1.671875 C 1.253906 -2.273438 1.054688 -2.972656 1.046875 -3.765625 L 2.59375 -3.765625 C 2.613281 -2.984375 2.921875 -2.367188 3.515625 -1.921875 C 4.117188 -1.472656 4.898438 -1.25 5.859375 -1.25 C 6.722656 -1.25 7.410156 -1.414062 7.921875 -1.75 C 8.429688 -2.082031 8.6875 -2.554688 8.6875 -3.171875 C 8.6875 -3.742188 8.4375 -4.203125 7.9375 -4.546875 C 7.445312 -4.890625 6.648438 -5.1875 5.546875 -5.4375 C 4.046875 -5.800781 2.941406 -6.265625 2.234375 -6.828125 C 1.535156 -7.398438 1.1875 -8.15625 1.1875 -9.09375 C 1.1875 -10.132812 1.578125 -10.957031 2.359375 -11.5625 C 3.148438 -12.175781 4.21875 -12.484375 5.5625 -12.484375 C 6.9375 -12.484375 8.023438 -12.132812 8.828125 -11.4375 C 9.628906 -10.75 10.035156 -9.8125 10.046875 -8.625 L 8.515625 -8.625 C 8.503906 -9.363281 8.234375 -9.941406 7.703125 -10.359375 C 7.171875 -10.785156 6.457031 -11 5.5625 -11 C 4.6875 -11 4 -10.828125 3.5 -10.484375 C 3.007812 -10.140625 2.765625 -9.675781 2.765625 -9.09375 C 2.765625 -8.59375 2.992188 -8.171875 3.453125 -7.828125 C 3.910156 -7.484375 4.738281 -7.164062 5.9375 -6.875 C 7.5 -6.488281 8.609375 -6.003906 9.265625 -5.421875 C 9.929688 -4.847656 10.265625 -4.113281 10.265625 -3.21875 C 10.265625 -2.15625 9.863281 -1.3125 9.0625 -0.6875 C 8.269531 -0.0703125 7.203125 0.234375 5.859375 0.234375 Z M 5.859375 0.234375 "/></g></g></g></svg>